<svg width="36" viewBox="0 0 36 35" fill="none" xmlns="http://www.w3.org/2000/svg">
    <path d="M20.6286 23.6923C20.6286 22.2054 21.8438 21 23.3429 21H24.4286C25.9276 21 27.1429 22.2054 27.1429 23.6923V24.7692C27.1429 26.2562 25.9276 27.4615 24.4286 27.4615H23.3429C21.8438 27.4615 20.6286 26.2562 20.6286 24.7692V23.6923Z"
          fill="#25FFB1"/>
    <path d="M23.3429 11.3077C21.8438 11.3077 20.6286 12.5131 20.6286 14V15.0769C20.6286 16.5638 21.8438 17.7692 23.3429 17.7692H24.4286C25.9276 17.7692 27.1429 16.5638 27.1429 15.0769V14C27.1429 12.5131 25.9276 11.3077 24.4286 11.3077H23.3429Z"
          fill="#25FFB1"/>
    <path fill-rule="evenodd" clip-rule="evenodd"
          d="M10.8571 0C4.86091 0 0 4.82155 0 10.7692V24.2308C0 30.1785 4.86091 35 10.8571 35H24.4286C30.4248 35 35.2857 30.1785 35.2857 24.2308V10.7692C35.2857 4.82155 30.4248 0 24.4286 0H10.8571ZM24.4286 4.30769H10.8571C7.2594 4.30769 4.34286 7.20062 4.34286 10.7692V24.2308C4.34286 27.7994 7.2594 30.6923 10.8571 30.6923H24.4286C28.0263 30.6923 30.9429 27.7994 30.9429 24.2308V10.7692C30.9429 7.20062 28.0263 4.30769 24.4286 4.30769Z"
          fill="#25FFB1"/>
</svg>
