<svg width="12" height="12" viewBox="0 0 12 12" fill="none" xmlns="http://www.w3.org/2000/svg">
<path d="M9.43027 10.1706C8.49747 10.9388 7.30246 11.4001 5.99971 11.4001C4.53708 11.4001 3.21026 10.8186 2.23784 9.87416L2.97293 9.14073L4.00511 10.1706H9.43027Z" fill="white"/>
<path d="M1.17102 8.4201H4.55545L5.17443 7.80252L5.7934 8.4201H10.8284C10.9868 8.10476 11.1151 7.77177 11.2098 7.42486H6.20661L5.17443 6.39501L4.14225 7.42486H0.789656C0.884302 7.77177 1.01267 8.10476 1.17102 8.4201Z" fill="white"/>
<path d="M0.609375 5.67438H6.4818L7.10078 5.0568L7.71975 5.67438H11.3901C11.3698 5.33314 11.3178 5.00042 11.237 4.67914H8.13296L7.10078 3.64929L6.0686 4.67914H0.762448C0.681669 5.00042 0.629677 5.33314 0.609375 5.67438Z" fill="white"/>
<path fill-rule="evenodd" clip-rule="evenodd" d="M1.55769 2.92867H7.85776L8.47674 2.31109L9.09571 2.92867H10.4417C9.46701 1.52164 7.84098 0.600098 5.99971 0.600098C4.15844 0.600098 2.53241 1.52164 1.55769 2.92867ZM4.44908 1.83196L4.29856 1.93343H7.68999L7.60095 1.87911L7.4668 1.80201C7.00731 1.64216 6.51358 1.5553 5.99964 1.5553C5.45445 1.5553 4.93202 1.65304 4.44908 1.83196Z" fill="white"/>
</svg>
