<svg width="12" height="12" viewBox="0 0 12 12" fill="none" xmlns="http://www.w3.org/2000/svg">
<path fill-rule="evenodd" clip-rule="evenodd" d="M6.40001 4.57167L3.88585 1.65674H2.59379L6.00644 5.61502L6.40746 5.14247C6.54654 4.97723 6.54433 4.73068 6.40001 4.57167ZM5.47017 6.25555C5.01358 6.78451 4.14298 7.79922 3.38643 8.6818C3.00817 9.12307 2.65846 9.53127 2.40331 9.82915L1.96138 10.3452H0.589844L4.21072 6.15141C4.29441 6.05453 4.29342 5.90987 4.2115 5.81754L0.616009 1.65694H1.94475L5.46435 5.74101C5.57033 5.88309 5.59896 6.10386 5.47017 6.25555ZM8.12372 10.3452L5.72627 7.5491L5.60909 7.40072C5.46999 7.23802 5.47422 6.98917 5.61764 6.8311L10.059 1.65694H11.3862L6.81624 6.87945C6.73107 6.97275 6.72811 7.12413 6.81078 7.21981L9.49804 10.3452H8.12372ZM10.1411 10.3452L9.07911 9.10539C8.52135 8.45422 7.88388 7.70989 7.56513 7.33731C7.47458 7.2307 7.44136 7.08583 7.47444 6.95307L7.47622 6.94593C7.5008 6.87371 7.55134 6.79921 7.59592 6.74922L7.95849 6.34865L11.4109 10.3452H10.1411ZM2.59813 10.3451L5.03318 7.50966L5.43426 7.98228C5.57332 8.1475 5.57113 8.39401 5.42686 8.55303L3.89004 10.3451H2.59813ZM6.58693 3.44909C6.44262 3.60806 6.44041 3.85457 6.57943 4.01983C6.62178 4.06869 6.70561 4.16738 6.7788 4.25381L6.91421 4.414L6.98049 4.49259L9.41572 1.65702H8.12373L6.58693 3.44909Z" fill="white"/>
</svg>
